<?xml version="1.0" encoding="UTF-8" standalone="no"?>
<svg
   width="24"
   height="24"
   fill="none"
   version="1.1"
   id="svg1"
   sodipodi:docname="bicycle.svg"
   inkscape:export-filename="bicycle.png"
   inkscape:export-xdpi="96"
   inkscape:export-ydpi="96"
   inkscape:version="1.3.2 (091e20e, 2023-11-25, custom)"
   xmlns:inkscape="http://www.inkscape.org/namespaces/inkscape"
   xmlns:sodipodi="http://sodipodi.sourceforge.net/DTD/sodipodi-0.dtd"
   xmlns="http://www.w3.org/2000/svg"
   xmlns:svg="http://www.w3.org/2000/svg">
  <defs
     id="defs1" />
  <sodipodi:namedview
     id="namedview1"
     pagecolor="#ffffff"
     bordercolor="#666666"
     borderopacity="1.0"
     inkscape:showpageshadow="2"
     inkscape:pageopacity="0.0"
     inkscape:pagecheckerboard="0"
     inkscape:deskcolor="#d1d1d1"
     inkscape:zoom="50.875"
     inkscape:cx="11.990172"
     inkscape:cy="12"
     inkscape:window-width="3440"
     inkscape:window-height="1417"
     inkscape:window-x="-8"
     inkscape:window-y="-8"
     inkscape:window-maximized="1"
     inkscape:current-layer="svg1" />
  <path
     d="M13.118 1.627a1.118 1.118 0 100 2.235h1.327l.699 3.354H8.646V6.098c0-.617-.501-1.118-1.119-1.118H4.174a1.118 1.118 0 000 2.236H6.41v.962l-1.008 3.53a5.031 5.031 0 105.478 4.868l4.998-5.832.282 1.352a5.032 5.032 0 001.989 9.653 5.03 5.03 0 00.21-10.057l-1.91-9.176a1.118 1.118 0 00-1.095-.89zm3.516 12.743l.42 2.018a1.118 1.118 0 002.19-.456l-.401-1.921a2.796 2.796 0 01-.694 5.503 2.795 2.795 0 01-1.515-5.144zm-6.524-.331a5.048 5.048 0 00-2.47-2.024l.732-2.563h5.67zm-3.09.14c.424.196.79.494 1.067.863H6.774zm-2.322-.007l-.48 1.68a1.118 1.118 0 001.074 1.426H8.59a2.796 2.796 0 11-3.892-3.106z"
     fill="#212121"
     id="path1" />
</svg>
