<svg width="24" height="24" viewBox="0 0 20 20" fill="none" xmlns="http://www.w3.org/2000/svg">
  <path
    d="M18.234 14.535a2.065 2.065 0 001.207-1.88v-1.432a2.95 2.95 0 00-2.19-2.85l-2.47-.66-1.82-3.276a2.95 2.95 0 00-2.58-1.518h-3.99a2.95 2.95 0 00-2.8 2.017l-.97 2.913a2.95 2.95 0 00-2.062 2.814v1.992c0 .835.495 1.554 1.207 1.88a2.951 2.951 0 005.815.186h4.838a2.951 2.951 0 005.815-.186zM6.39 4.099h1.25v3.54H3.934l.777-2.33a1.77 1.77 0 011.68-1.21zm5.539.91l1.461 2.63H8.82V4.1h1.561a1.77 1.77 0 011.548.91zm-9.01 9.122a1.77 1.77 0 113.54 0 1.77 1.77 0 01-3.54 0zm10.622 0a1.77 1.77 0 113.54 0 1.77 1.77 0 01-3.54 0z"
    fill="#212121" />
</svg>
