<?xml version="1.0" encoding="UTF-8" standalone="no"?>
<svg
   fill="#000000"
   id="motorcycle"
   width="24"
   height="24"
   viewBox="0 0 467.168 467.168"
   xml:space="preserve"
   version="1.1"
   sodipodi:docname="motorcycle.svg"
   inkscape:version="1.3.2 (091e20e, 2023-11-25, custom)"
   inkscape:export-filename="motorcycle.png"
   inkscape:export-xdpi="96"
   inkscape:export-ydpi="96"
   xmlns:inkscape="http://www.inkscape.org/namespaces/inkscape"
   xmlns:sodipodi="http://sodipodi.sourceforge.net/DTD/sodipodi-0.dtd"
   xmlns="http://www.w3.org/2000/svg"
   xmlns:svg="http://www.w3.org/2000/svg"><defs
   id="defs2" /><sodipodi:namedview
   id="namedview2"
   pagecolor="#ffffff"
   bordercolor="#666666"
   borderopacity="1.0"
   inkscape:showpageshadow="2"
   inkscape:pageopacity="0.0"
   inkscape:pagecheckerboard="0"
   inkscape:deskcolor="#d1d1d1"
   inkscape:zoom="50.875"
   inkscape:cx="11.990172"
   inkscape:cy="12"
   inkscape:window-width="3440"
   inkscape:window-height="1417"
   inkscape:window-x="-8"
   inkscape:window-y="-8"
   inkscape:window-maximized="1"
   inkscape:current-layer="motorcycle" />
  <g
   id="g2"
   transform="matrix(0.97051603,0,0,0.94435836,6.8869975,12.997025)">
    <g
   id="g1">
      <path
   d="M 76.849,210.531 C 34.406,210.531 0,244.937 0,287.388 c 0,42.438 34.406,76.847 76.849,76.847 30.989,0 57.635,-18.387 69.789,-44.819 l 18.258,14.078 c 0,0 134.168,0.958 141.538,-3.206 0,0 -16.65,-45.469 4.484,-64.688 2.225,-2.024 5.021,-4.332 8.096,-6.777 -3.543,8.829 -5.534,18.45 -5.534,28.558 0,42.446 34.403,76.846 76.846,76.846 42.443,0 76.843,-34.415 76.843,-76.846 0,-42.451 -34.408,-76.849 -76.843,-76.849 -0.697,0 -1.362,0.088 -2.056,0.102 5.551,-3.603 9.093,-5.865 9.093,-5.865 l -5.763,-5.127 c 0,0 16.651,-3.837 12.816,-12.167 -3.848,-8.33 -44.19,-58.28 -44.19,-58.28 0,0 7.146,-15.373 -7.634,-26.261 l -7.098,15.371 c 0,0 -18.093,-12.489 -25.295,-10.084 -7.205,2.398 -18.005,3.603 -21.379,8.884 l -3.358,3.124 c 0,0 -0.95,5.528 4.561,13.693 0,0 55.482,17.05 58.119,29.537 0,0 3.848,7.933 -12.728,9.844 l -3.354,4.328 -8.896,0.479 -16.082,-36.748 c 0,0 -15.381,4.082 -23.299,10.323 l 1.201,6.24 c 0,0 -64.599,-43.943 -125.362,21.137 0,0 -44.909,12.966 -76.37,-26.897 0,0 -0.479,-12.968 -76.367,-10.565 l 5.286,5.524 c 0,0 -5.286,0.479 -7.444,3.841 -2.158,3.358 1.2,6.961 18.494,6.961 0,0 39.153,44.668 69.17,42.032 l 42.743,20.656 18.975,32.42 c 0,0 0.034,2.785 0.23,7.045 -4.404,0.938 -9.341,1.979 -14.579,3.09 -10.155,-30.567 -38.928,-52.638 -72.911,-52.638 z m 313.476,23.55 c 29.395,0 53.299,23.912 53.299,53.299 0,29.39 -23.912,53.294 -53.299,53.294 -29.394,0 -53.294,-23.912 -53.294,-53.294 0,-29.387 23.901,-53.299 53.294,-53.299 z M 76.849,340.683 c -29.387,0 -53.299,-23.913 -53.299,-53.295 0,-29.395 23.912,-53.299 53.299,-53.299 22.592,0 41.896,14.154 49.636,34.039 -28.26,6.011 -56.31,11.99 -56.31,11.99 l 3.619,19.933 55.339,-2.444 c -4.768,24.509 -26.388,43.076 -52.284,43.076 z m 92.303,-44.848 c 1.571,5.334 3.619,9.574 6.312,11.394 l -24.696,0.966 c 1.058,-3.783 1.857,-7.666 2.338,-11.662 z"
   id="path1">
      </path>
    </g>
  </g>
</svg>
