<?xml version="1.0" encoding="UTF-8" standalone="no"?>
<svg
   width="24"
   height="24"
   viewBox="0 0 24 24"
   fill="none"
   version="1.1"
   id="svg1"
   sodipodi:docname="scooter.svg"
   inkscape:version="1.3.2 (091e20e, 2023-11-25, custom)"
   inkscape:export-filename="scooter.png"
   inkscape:export-xdpi="96"
   inkscape:export-ydpi="96"
   xmlns:inkscape="http://www.inkscape.org/namespaces/inkscape"
   xmlns:sodipodi="http://sodipodi.sourceforge.net/DTD/sodipodi-0.dtd"
   xmlns="http://www.w3.org/2000/svg"
   xmlns:svg="http://www.w3.org/2000/svg">
  <defs
     id="defs1" />
  <sodipodi:namedview
     id="namedview1"
     pagecolor="#ffffff"
     bordercolor="#666666"
     borderopacity="1.0"
     inkscape:showpageshadow="2"
     inkscape:pageopacity="0.0"
     inkscape:pagecheckerboard="0"
     inkscape:deskcolor="#d1d1d1"
     inkscape:zoom="50.875"
     inkscape:cx="11.990172"
     inkscape:cy="12"
     inkscape:window-width="3440"
     inkscape:window-height="1417"
     inkscape:window-x="-8"
     inkscape:window-y="-8"
     inkscape:window-maximized="1"
     inkscape:current-layer="svg1" />
  <path
     d="M 17.341341,3.1352281 H 13.108413 V 5.351421 h 2.41565 L 16.321893,8.2324718 11.202487,12.321348 9.274366,8.6757104 H 0.91931869 V 10.891903 H 1.6285004 c -0.4953856,1.036625 -0.73840222,2.175748 -0.70918171,3.32429 v 2.216193 H 3.1355116 c 0,1.175579 0.4669851,2.302956 1.2982237,3.13414 0.8312274,0.831294 1.9586269,1.298245 3.1341621,1.298245 1.1755463,0 2.3029901,-0.466951 3.1341736,-1.298245 0.831183,-0.831184 1.298246,-1.958561 1.298246,-3.13414 V 14.52646 L 18.759705,9.118949 Z M 7.5678974,18.648579 c -0.5877676,0 -1.1514673,-0.233476 -1.5670811,-0.649123 C 5.5852026,17.583809 5.3517045,17.02012 5.3517045,16.432386 h 4.4324191 c 0,0.587734 -0.2335203,1.151423 -0.649134,1.56707 -0.4156248,0.415647 -0.9793135,0.649123 -1.5670922,0.649123 z M 18.648895,12 c -0.876726,0 -1.733617,0.259959 -2.462523,0.746968 -0.728905,0.487008 -1.297026,1.179347 -1.632447,1.989254 -0.335532,0.809908 -0.423293,1.701039 -0.252314,2.560922 0.17109,0.859772 0.593164,1.649512 1.213033,2.269382 0.61998,0.619869 1.409721,1.042054 2.269493,1.213033 0.859772,0.17109 1.751014,0.08333 2.560921,-0.252203 0.809908,-0.335421 1.502136,-0.903542 1.989255,-1.632448 0.487009,-0.728905 0.746968,-1.585907 0.746968,-2.462522 0,-1.17558 -0.467063,-2.302957 -1.298246,-3.13414 C 20.951852,12.466952 19.824364,12 18.648895,12 Z m 0,6.648579 c -0.438363,0 -0.866864,-0.12998 -1.231317,-0.37354 -0.364452,-0.243449 -0.648458,-0.589618 -0.816223,-0.994516 -0.167766,-0.40501 -0.211647,-0.850575 -0.126102,-1.280517 0.08554,-0.42983 0.296638,-0.824756 0.606572,-1.13469 0.309935,-0.309935 0.70475,-0.521027 1.134691,-0.606572 0.429941,-0.08544 0.875507,-0.04155 1.280405,0.126101 0.40501,0.167766 0.751068,0.451882 0.994628,0.816335 0.243559,0.364453 0.373539,0.792843 0.373539,1.231206 0,0.587734 -0.233476,1.151423 -0.649123,1.56707 -0.415647,0.415647 -0.979335,0.649123 -1.56707,0.649123 z"
     fill="#000000"
     id="path1"
     style="stroke-width:1.1081" />
</svg>
