<?xml version="1.0" encoding="UTF-8" standalone="no"?>
<svg
   width="24"
   height="24"
   fill="none"
   version="1.1"
   id="svg1"
   sodipodi:docname="truck.svg"
   inkscape:export-filename="truck.png"
   inkscape:export-xdpi="96"
   inkscape:export-ydpi="96"
   inkscape:version="1.3.2 (091e20e, 2023-11-25, custom)"
   xmlns:inkscape="http://www.inkscape.org/namespaces/inkscape"
   xmlns:sodipodi="http://sodipodi.sourceforge.net/DTD/sodipodi-0.dtd"
   xmlns="http://www.w3.org/2000/svg"
   xmlns:svg="http://www.w3.org/2000/svg">
  <defs
     id="defs1" />
  <sodipodi:namedview
     id="namedview1"
     pagecolor="#ffffff"
     bordercolor="#666666"
     borderopacity="1.0"
     inkscape:showpageshadow="2"
     inkscape:pageopacity="0.0"
     inkscape:pagecheckerboard="0"
     inkscape:deskcolor="#d1d1d1"
     inkscape:zoom="50.875"
     inkscape:cx="11.990172"
     inkscape:cy="12"
     inkscape:window-width="3440"
     inkscape:window-height="1417"
     inkscape:window-x="-8"
     inkscape:window-y="-8"
     inkscape:window-maximized="1"
     inkscape:current-layer="svg1" />
  <path
     d="M2 5.25A2.25 2.25 0 014.25 3h10a2.25 2.25 0 012.25 2.25V6h1.55c.87 0 1.662.501 2.034 1.287l1.7 3.587c.142.301.216.63.216.963v5.413a2.25 2.25 0 01-2.25 2.25h-1.791a3 3 0 01-5.918 0H9.96a3 3 0 01-5.92-.01A2.25 2.25 0 012 17.25v-12zM20.5 15.5h-1.25a.75.75 0 100 1.5h1.25v-1.5zm-.317-4.5L18.73 7.929a.75.75 0 00-.678-.429H16.5V11h3.683zM7 20.5a1.5 1.5 0 100-3 1.5 1.5 0 000 3zm9.5-1.5a1.5 1.5 0 10-3 0 1.5 1.5 0 003 0z"
     fill="#212121"
     id="path1" />
</svg>
