<?xml version="1.0" encoding="UTF-8" standalone="no"?>
<svg
   width="24"
   height="24"
   viewBox="0 0 100 100"
   version="1.1"
   id="svg1"
   sodipodi:docname="walk.svg"
   inkscape:export-filename="walk.png"
   inkscape:export-xdpi="96"
   inkscape:export-ydpi="96"
   inkscape:version="1.3.2 (091e20e, 2023-11-25, custom)"
   xmlns:inkscape="http://www.inkscape.org/namespaces/inkscape"
   xmlns:sodipodi="http://sodipodi.sourceforge.net/DTD/sodipodi-0.dtd"
   xmlns="http://www.w3.org/2000/svg"
   xmlns:svg="http://www.w3.org/2000/svg">
  <defs
     id="defs1" />
  <sodipodi:namedview
     id="namedview1"
     pagecolor="#ffffff"
     bordercolor="#666666"
     borderopacity="1.0"
     inkscape:showpageshadow="2"
     inkscape:pageopacity="0.0"
     inkscape:pagecheckerboard="0"
     inkscape:deskcolor="#d1d1d1"
     inkscape:zoom="50.875"
     inkscape:cx="11.990172"
     inkscape:cy="12"
     inkscape:window-width="3440"
     inkscape:window-height="1417"
     inkscape:window-x="-8"
     inkscape:window-y="-8"
     inkscape:window-maximized="1"
     inkscape:current-layer="svg1" />
  <path
     d="M52.23 21.13c4.25 0 7.71-3.46 7.71-7.71s-3.46-7.71-7.71-7.71-7.71 3.46-7.71 7.71 3.46 7.71 7.71 7.71zM73.2 48.71a4.003 4.003 0 00-1.95-2.34l-7.59-3.97-7.24-14.43s-.05-.09-.07-.13a7.016 7.016 0 00-6.24-3.81c-1.84 0-3.58.71-4.91 2-.13.1-.24.2-.34.3l-11.5 11.21c-.51.49-.87 1.11-1.06 1.79l-3.2 11.64c-.58 2.12.67 4.31 2.78 4.89.35.1.7.14 1.06.14 1.78 0 3.36-1.2 3.83-2.92l2.92-10.6 3.39-3.3v15.28l-3.85 19.09-11.5 13.27c-.79.91-1.18 2.07-1.09 3.28a4.512 4.512 0 004.5 4.19c1.31 0 2.55-.57 3.41-1.56l12.28-14.17c.51-.59.86-1.3 1.01-2.06l1.67-8.26 12.53 23.65a4.497 4.497 0 006.1 1.87c2.2-1.17 3.04-3.9 1.87-6.1L57.14 63.39V47.14c.38.74.96 1.33 1.7 1.72l8.73 4.56c.57.3 1.2.45 1.84.45 1.49 0 2.84-.82 3.53-2.14.49-.94.59-2.02.27-3.03z"
     id="path1" />
</svg>
