<svg width="100" height="100" xmlns="http://www.w3.org/2000/svg">
  <path
    d="M49.994 12.66l-37.111 21.3v49.444h13.119V42.37h47.984v41.035h13.118V33.961l-37.11-21.3zM29.813 58.738c-1.234 0-2.354 1.01-2.354 2.356v6.838c0 1.233 1.008 2.355 2.354 2.355h9.193c1.233 0 2.355-1.01 2.355-2.355v-6.838c0-1.234-1.01-2.356-2.355-2.356h-9.193zm15.472 0c-1.233 0-2.353 1.01-2.353 2.356v6.838c0 1.233 1.008 2.355 2.353 2.355h9.194c1.233 0 2.353-1.01 2.353-2.355v-6.838c0-1.234-1.008-2.356-2.353-2.356h-9.194zm-15.36 13.12c-1.232 0-2.355 1.008-2.355 2.353v6.84c0 1.233 1.01 2.353 2.356 2.353h9.193c1.233 0 2.354-1.008 2.354-2.353v-6.84c-.112-1.233-1.12-2.354-2.354-2.354h-9.193zm15.36 0c-1.233 0-2.353 1.008-2.353 2.353v6.84c0 1.233 1.008 2.353 2.353 2.353h9.194c1.233 0 2.353-1.008 2.353-2.353v-6.84c0-1.233-1.008-2.354-2.353-2.354h-9.194zm15.584 0c-1.233 0-2.353 1.008-2.353 2.353v6.84c0 1.233 1.008 2.353 2.353 2.353h9.193c1.234 0 2.356-1.008 2.356-2.353v-6.84c0-1.233-1.01-2.354-2.356-2.354H60.87zM2.682 83.964v3.476h94.736v-3.476H2.682z" />
</svg>
