<?xml version="1.0" encoding="UTF-8" standalone="no"?>
<svg
   width="100"
   height="100"
   version="1.1"
   id="svg1"
   sodipodi:docname="warehouse.svg"
   inkscape:export-filename="warehouse.png"
   inkscape:export-xdpi="23.04"
   inkscape:export-ydpi="23.04"
   inkscape:version="1.3.2 (091e20e, 2023-11-25, custom)"
   xmlns:inkscape="http://www.inkscape.org/namespaces/inkscape"
   xmlns:sodipodi="http://sodipodi.sourceforge.net/DTD/sodipodi-0.dtd"
   xmlns="http://www.w3.org/2000/svg"
   xmlns:svg="http://www.w3.org/2000/svg">
  <defs
     id="defs1" />
  <sodipodi:namedview
     id="namedview1"
     pagecolor="#ffffff"
     bordercolor="#666666"
     borderopacity="1.0"
     inkscape:showpageshadow="2"
     inkscape:pageopacity="0.0"
     inkscape:pagecheckerboard="0"
     inkscape:deskcolor="#d1d1d1"
     inkscape:zoom="12.21"
     inkscape:cx="49.95905"
     inkscape:cy="50"
     inkscape:window-width="3440"
     inkscape:window-height="1417"
     inkscape:window-x="-8"
     inkscape:window-y="-8"
     inkscape:window-maximized="1"
     inkscape:current-layer="svg1" />
  <path
     d="M49.994 12.66l-37.111 21.3v49.444h13.119V42.37h47.984v41.035h13.118V33.961l-37.11-21.3zM29.813 58.738c-1.234 0-2.354 1.01-2.354 2.356v6.838c0 1.233 1.008 2.355 2.354 2.355h9.193c1.233 0 2.355-1.01 2.355-2.355v-6.838c0-1.234-1.01-2.356-2.355-2.356h-9.193zm15.472 0c-1.233 0-2.353 1.01-2.353 2.356v6.838c0 1.233 1.008 2.355 2.353 2.355h9.194c1.233 0 2.353-1.01 2.353-2.355v-6.838c0-1.234-1.008-2.356-2.353-2.356h-9.194zm-15.36 13.12c-1.232 0-2.355 1.008-2.355 2.353v6.84c0 1.233 1.01 2.353 2.356 2.353h9.193c1.233 0 2.354-1.008 2.354-2.353v-6.84c-.112-1.233-1.12-2.354-2.354-2.354h-9.193zm15.36 0c-1.233 0-2.353 1.008-2.353 2.353v6.84c0 1.233 1.008 2.353 2.353 2.353h9.194c1.233 0 2.353-1.008 2.353-2.353v-6.84c0-1.233-1.008-2.354-2.353-2.354h-9.194zm15.584 0c-1.233 0-2.353 1.008-2.353 2.353v6.84c0 1.233 1.008 2.353 2.353 2.353h9.193c1.234 0 2.356-1.008 2.356-2.353v-6.84c0-1.233-1.01-2.354-2.356-2.354H60.87zM2.682 83.964v3.476h94.736v-3.476H2.682z"
     id="path1" />
</svg>
