<svg version="1.1" x="0" y="0" xml:space="preserve" id="prefix__prefix__svg10" width="100" height="100"
  xmlns="http://www.w3.org/2000/svg">
  <style type="text/css" id="style1" />
  <rect width="26.609" height="23.09" x="34.764" y="9.013" ry="8.186" fill="#ff2a2a" fill-rule="evenodd"
    stroke-width="1.784" />
  <rect width="24.635" height="23.176" x="35.966" y="35.708" ry="8.186" fill="#ff7f2a" fill-rule="evenodd"
    stroke-width="1.784" />
  <rect width="25.579" height="23.348" x="34.652" y="62.918" ry="8.186" fill="#4a0" fill-rule="evenodd"
    stroke-width="1.784" />
  <path
    d="M64.486 2.485H33.094a6.146 6.146 0 00-6.144 6.144v80.882c0 3.392 2.752 6.159 6.144 6.159h31.392c3.393 0 6.144-2.767 6.144-6.16V8.63a6.146 6.146 0 00-6.144-6.145zM48.79 83.905c-5.562 0-10.075-4.514-10.075-10.076s4.513-10.075 10.075-10.075c5.562 0 10.076 4.513 10.076 10.075 0 5.562-4.514 10.076-10.076 10.076zm0-26.208c-5.562 0-10.075-4.514-10.075-10.076s4.513-10.09 10.075-10.09c5.562 0 10.076 4.528 10.076 10.09S54.352 57.697 48.79 57.697zm0-26.208c-5.562 0-10.075-4.529-10.075-10.09 0-5.548 4.513-10.076 10.075-10.076 5.562 0 10.076 4.528 10.076 10.076 0 5.561-4.514 10.09-10.076 10.09z"
    stroke-width="1.456" />
  <g transform="translate(-2.17 -1.883) scale(1.456)">
    <path d="M61.1 28v2.97c0 5.23-4 9.55-9.1 10.06V26.9h8c.6 0 1.1.49 1.1 1.1z" />
  </g>
  <path
    d="M61.1 47v2.97c0 5.23-4 9.55-9.1 10.06V45.9h8c.6 0 1.1.49 1.1 1.1zM61.1 9v2.97c0 5.23-4 9.55-9.1 10.06V7.9h8c.6 0 1.1.49 1.1 1.1zM18 7.9v14.13c-5.1-.51-9.1-4.84-9.1-10.06V9c0-.61.5-1.1 1.1-1.1zM18 26.9v14.13c-5.1-.51-9.1-4.84-9.1-10.06V28c0-.61.5-1.1 1.1-1.1zM18 45.9v14.13c-5.1-.51-9.1-4.84-9.1-10.06V47c0-.61.5-1.1 1.1-1.1z"
    transform="translate(-2.17 -1.883) scale(1.456)" />
</svg>
