<?xml version="1.0" encoding="UTF-8" standalone="no"?>
<svg
   version="1.1"
   x="0px"
   y="0px"
   viewBox="0 0 100 100"
   xml:space="preserve"
   id="svg10"
   sodipodi:docname="traffic.svg"
   width="100"
   height="100"
   inkscape:version="1.3.2 (091e20e, 2023-11-25, custom)"
   xmlns:inkscape="http://www.inkscape.org/namespaces/inkscape"
   xmlns:sodipodi="http://sodipodi.sourceforge.net/DTD/sodipodi-0.dtd"
   xmlns="http://www.w3.org/2000/svg"
   xmlns:svg="http://www.w3.org/2000/svg"><defs
     id="defs10" /><sodipodi:namedview
     id="namedview10"
     pagecolor="#ffffff"
     bordercolor="#666666"
     borderopacity="1.0"
     inkscape:showpageshadow="2"
     inkscape:pageopacity="0.0"
     inkscape:pagecheckerboard="0"
     inkscape:deskcolor="#d1d1d1"
     inkscape:zoom="10.72"
     inkscape:cx="48.973881"
     inkscape:cy="49.953358"
     inkscape:window-width="1898"
     inkscape:window-height="1401"
     inkscape:window-x="758"
     inkscape:window-y="0"
     inkscape:window-maximized="0"
     inkscape:current-layer="svg10" /><style
     type="text/css"
     id="style1">
	.st0{stroke:#000000;stroke-width:2;stroke-linecap:round;stroke-linejoin:round;}
	.st1{stroke:#000000;stroke-width:2;stroke-linecap:round;stroke-linejoin:round;stroke-miterlimit:10;}
</style><rect
     style="fill:#55ddff;fill-rule:evenodd;stroke-width:1.78394;stroke-linecap:round;stroke-linejoin:round"
     id="rect1"
     width="99.626869"
     height="99.720146"
     x="0.18656708"
     y="0.18656716"
     ry="8.1860676" /><g
     id="g12"><rect
       style="fill:#ff2a2a;fill-rule:evenodd;stroke-width:1.78394;stroke-linecap:round;stroke-linejoin:round"
       id="rect12"
       width="26.609442"
       height="23.090128"
       x="34.76395"
       y="9.0128756"
       ry="8.1860676" /><rect
       style="fill:#ff7f2a;fill-rule:evenodd;stroke-width:1.78394;stroke-linecap:round;stroke-linejoin:round"
       id="rect11"
       width="24.635193"
       height="23.175966"
       x="35.965664"
       y="35.708153"
       ry="8.1860676" /><rect
       style="fill:#44aa00;fill-rule:evenodd;stroke-width:1.78394;stroke-linecap:round;stroke-linejoin:round"
       id="rect10"
       width="25.579399"
       height="23.347639"
       x="34.652363"
       y="62.918457"
       ry="8.1860676" /><path
       d="M 64.486011,2.4849785 H 33.094468 c -3.392436,0 -6.144314,2.7518775 -6.144314,6.1444024 V 89.51064 c 0,3.392615 2.751878,6.158889 6.144314,6.158889 h 31.391543 c 3.392524,0 6.144401,-2.766274 6.144401,-6.158887 V 8.6293809 c 0,-3.3925249 -2.751877,-6.1444024 -6.144401,-6.1444024 z M 48.790283,83.905043 c -5.561963,0 -10.075553,-4.513591 -10.075553,-10.075643 0,-5.562052 4.51359,-10.075466 10.075553,-10.075466 5.561965,0 10.075555,4.513414 10.075555,10.075466 0,5.562052 -4.51359,10.075643 -10.075555,10.075643 z m 0,-26.208154 c -5.561963,0 -10.075553,-4.513592 -10.075553,-10.075644 0,-5.562052 4.51359,-10.09004 10.075553,-10.09004 5.561965,0 10.075555,4.527988 10.075555,10.09004 0,5.562052 -4.51359,10.075644 -10.075555,10.075644 z m 0,-26.208155 c -5.561963,0 -10.075553,-4.528254 -10.075553,-10.090218 0,-5.547389 4.51359,-10.075555 10.075553,-10.075555 5.561965,0 10.075555,4.528166 10.075555,10.075555 0,5.561964 -4.51359,10.090218 -10.075555,10.090218 z"
       id="path1"
       style="stroke-width:1.45601" /><g
       id="g8"
       transform="matrix(1.4560086,0,0,1.4560086,-2.1700616,-1.8830473)"><g
         id="g2"><path
           d="m 61.100006,28 v 2.969971 c 0,5.22998 -4,9.550049 -9.099976,10.060058 V 26.900024 h 8 c 0.599976,0 1.099976,0.489991 1.099976,1.099976 z"
           id="path2" /></g><g
         id="g3"><path
           d="m 61.100006,47 v 2.969971 c 0,5.22998 -4,9.550048 -9.099976,10.060058 V 45.900024 h 8 c 0.599976,0 1.099976,0.489991 1.099976,1.099976 z"
           id="path3" /></g><g
         id="g4"><path
           d="m 61.100006,9 v 2.970032 c 0,5.22998 -4,9.549987 -9.099976,10.059997 V 7.9000244 h 8 c 0.599976,0 1.099976,0.4899902 1.099976,1.0999756 z"
           id="path4" /></g><g
         id="g5"><path
           d="M 18.00003,7.9000244 V 22.030029 C 12.899994,21.520019 8.8999939,17.190002 8.8999939,11.970032 V 9 c 0,-0.6099854 0.5,-1.0999756 1.1000371,-1.0999756 z"
           id="path5" /></g><g
         id="g6"><path
           d="M 18.00003,26.900024 V 41.030029 C 12.899994,40.520019 8.8999939,36.189941 8.8999939,30.969971 V 28 c 0,-0.609985 0.5,-1.099976 1.1000371,-1.099976 z"
           id="path6" /></g><g
         id="g7"><path
           d="M 18.00003,45.900024 V 60.030029 C 12.899994,59.520019 8.8999939,55.189941 8.8999939,49.969971 V 47 c 0,-0.609985 0.5,-1.099976 1.1000371,-1.099976 z"
           id="path7" /></g></g></g></svg>
